<svg xmlns="http://www.w3.org/2000/svg" xml:space="preserve" width="113px" height="32px" version="1.1" viewBox="0 0 4035 1138" style="image-rendering:optimizeQuality;shape-rendering:geometricPrecision;text-rendering:geometricPrecision"><defs><style type="text/css">
    .fil0 {fill:none}
    .fil2 {fill:#FF6600;fill-rule:nonzero}
    .fil1 {fill:url(#id0)}
   </style><linearGradient id="id0" gradientUnits="userSpaceOnUse" x1="440.09" y1="18.93" x2="440.09" y2="1142.6"><stop offset="0" stop-color="#3C82D2"/><stop offset="1" stop-color="#205FA0"/></linearGradient></defs><g id="Layer_x0020_1"><metadata id="CorelCorpID_0Corel-Layer"/><g id="_311602752"><polygon class="fil0" points="0 0 4035 0 4035 1138 0 1138 "/><path class="fil1" d="M678 709c-38-9-163-89-200-117-32-24-85-70-111-99l-24-28c-41-50-63-91-90-147-3-6-5-14-10-17l-38 63c-41 71-72 130-101 209-43 115-67 265 7 374 21 32 44 56 75 79 133 99 332 117 479 39-8-11-95-97-104-107-23-22-51-45-69-63l-43-37c-31-27-87-71-117-94l-123-90c101 24 155 48 241 85 80 35 165 89 234 145 22 17 86 79 86 79 28-42 42-66 51-122 22-130-38-302-96-417l-60-113c-49-89-129-209-191-288-5-7-14-20-20-24-7 5-26 30-33 38l-77 99c-2 7 23 70 26 79 32 77 51 119 91 193 38 70 80 127 129 189 4 4 4 5 8 9 16 17 23 27 43 47l37 36z"/><polygon class="fil2" points="3935 285 3815 285 3815 918 3704 918 3704 285 3585 285 3585 227 3935 227 "/><polygon class="fil2" points="3534 918 3230 918 3230 227 3534 227 3534 285 3343 285 3343 544 3502 544 3502 603 3343 603 3343 861 3534 861 "/><polygon class="fil2" points="3177 918 3064 918 3064 227 3177 227 "/><polygon class="fil2" points="3010 227 2847 918 2736 918 2578 227 2691 227 2792 681 2896 227 "/><polygon class="fil2" points="2525 918 2220 918 2220 227 2524 227 2524 285 2333 285 2333 544 2492 544 2492 603 2333 603 2333 861 2525 861 "/><polygon class="fil2" points="2167 918 2050 918 1923 664 1923 918 1810 918 1810 227 1923 227 1923 479 2050 227 2167 227 1991 573 "/><path class="fil2" d="M1760 818c0 29-15 54-45 75-35 22-78 34-130 34-52 0-94-11-126-33-33-23-49-48-49-76l0-588 111 0 0 587c0 13 5 24 14 33 12 12 29 18 50 18 43 0 64-17 64-51l0-587 111 0 0 588z"/><polygon class="fil2" points="1358 918 1250 918 1119 550 1119 918 1006 918 1006 227 1115 227 1246 596 1246 227 1358 227 "/></g></g></svg>