<svg xmlns="http://www.w3.org/2000/svg" xml:space="preserve" width="1540" height="330" shape-rendering="geometricPrecision" text-rendering="geometricPrecision" image-rendering="optimizeQuality" fill-rule="evenodd" clip-rule="evenodd" viewBox="0 0 1283260 274930"><g fill-rule="nonzero"><path fill="#0068CC" d="M152530 173170c-9430-2210-40410-22330-49500-29140-8090-6140-21220-17730-27620-25060l-5890-6990C59240 99540 53690 89140 46950 75000c-670-1370-1010-3240-2360-4260l-9430 15850c-10100 18060-17850 32720-25090 52490-10770 28810-16500 66480 1690 93920 5380 8180 11110 13970 18850 19940 32840 24880 82350 29320 118550 9880-1850-3060-23400-24540-25760-26920-5560-5630-12460-11250-17010-15850l-10780-9380c-7400-6820-21380-17730-28960-23520l-30480-22500c24920 5800 38390 12100 59610 21300 20040 8700 41260 22330 58440 36310 5380 4260 21040 19770 21210 19770 6910-10400 10270-16530 12630-30510 5390-32720-9600-75850-23910-104820l-14820-28470c-12290-22150-32160-52320-47490-72090-1180-1710-3530-5120-4880-6140-1680 1190-6570 7670-8080 9720L69680 34600c-500 1530 5730 17390 6570 19600 7750 19430 12460 30000 22400 48410 9430 17550 19870 32040 32160 47550 840 1020 840 1190 1850 2220 4040 4260 5720 6810 10780 11930l9090 8860z"/><path fill="#fff" d="M286320 123050v106560h-41410V60030h36710l89710 101090V60030h41410v169580h-32790l-93630-106560zm232460 92160c-5640 5830-11520 10050-17560 12700-6040 2610-13020 3930-20910 3930-12410 0-21960-3800-28660-11460s-10040-18620-10040-32940v-72790h35760v67830c0 8190 1310 14150 3880 17910 2580 3770 6620 5630 12130 5630 4900 0 9560-1530 13880-4550 4330-3020 8170-7530 11520-13530v-73290h35770v114960h-35770v-14400zm141770 14400-44260-59670 43530-55290h42950l-43850 55290 44340 59670h-42710zm-80280 0V60030h35530v169580h-35530zm243250-12580c-7720 5090-15890 8890-24460 11340-8580 2480-17720 3720-27440 3720-19520 0-34830-5420-45900-16260-11060-10800-16620-25820-16620-44980 0-17670 5430-31870 16250-42500 10870-10630 25320-15930 43330-15930 17760 0 31810 5750 42100 17250 10290 11510 15430 27400 15430 47590v1200h-80360v500c0 9100 3060 16300 9230 21600 6120 5300 14540 7940 25230 7940 7190 0 14380-1280 21570-3890 7140-2560 14370-6410 21640-11500v23920zm-77420-56200 44100-120c-660-7410-2860-13240-6660-17420s-8700-6290-14660-6290c-6160 0-11270 2110-15310 6290-4000 4180-6530 10050-7470 17540z"/><path fill="#F60" d="M903920 231100 827970 60030h44830l41370 98570 44140-98570h45320l-81580 171070h-18130zm107840-1490V114650h35770v114960h-35770zm-1230-152160c0-5420 1840-10010 5560-13780 3710-3760 8200-5630 13550-5630 5430 0 9970 1870 13600 5590 3680 3730 5510 8320 5510 13820 0 5460-1830 10020-5510 13740-3630 3720-8170 5590-13600 5590-5350 0-9840-1870-13550-5630-3720-3770-5560-8320-5560-13700zm171260 139580c-7720 5090-15890 8890-24460 11340-8580 2480-17720 3720-27440 3720-19520 0-34830-5420-45900-16260-11060-10800-16620-25820-16620-44980 0-17670 5430-31870 16250-42500 10860-10630 25320-15930 43330-15930 17760 0 31810 5750 42100 17250 10290 11510 15430 27400 15430 47590v1200h-80360v500c0 9100 3060 16300 9230 21600 6120 5300 14540 7940 25230 7940 7190 0 14380-1280 21570-3890 7140-2560 14370-6410 21640-11500v23920zm-77420-56200 44100-120c-660-7410-2860-13240-6660-17420s-8700-6290-14660-6290c-6160 0-11270 2110-15310 6290-4000 4180-6530 10050-7470 17540zm104410-21100h-16170v-7740l46300-50850h5390v33510h38710v25080h-38710v42460c0 8810 1230 14730 3720 17670 2450 2930 6940 4420 13470 4420 3190 0 6580-450 10130-1400 3510-910 7350-2360 11390-4310l250 27070c-5760 2190-11520 3800-17230 4880-5760 1030-11480 1570-17160 1570-14410 0-24740-3760-30860-11300-6170-7530-9230-20480-9230-38850v-42210z"/></g></svg>