<svg xmlns="http://www.w3.org/2000/svg" xml:space="preserve" width="1426" height="330" shape-rendering="geometricPrecision" text-rendering="geometricPrecision" image-rendering="optimizeQuality" fill-rule="evenodd" clip-rule="evenodd" viewBox="0 0 1046.24 242.06"><path fill="#0068CC" fill-rule="nonzero" d="M134.3 152.47c-8.31-1.95-35.59-19.66-43.59-25.66-7.12-5.41-18.68-15.61-24.32-22.06l-5.19-6.16c-9.04-10.95-13.93-20.11-19.86-32.56-.6-1.2-.89-2.85-2.08-3.75l-8.3 13.95c-8.9 15.91-15.72 28.82-22.09 46.22-9.49 25.36-14.53 58.53 1.48 82.69 4.74 7.2 9.78 12.3 16.6 17.56 28.91 21.9 72.5 25.81 104.38 8.7-1.63-2.7-20.61-21.61-22.69-23.71-4.89-4.95-10.97-9.9-14.97-13.95l-9.49-8.26c-6.52-6-18.83-15.61-25.5-20.71l-26.83-19.81c21.94 5.11 33.8 10.66 52.48 18.76 17.64 7.65 36.32 19.66 51.45 31.96 4.74 3.76 18.53 17.41 18.68 17.41 6.08-9.15 9.04-14.55 11.12-26.86 4.74-28.81-8.46-66.78-21.06-92.29l-13.04-25.06C120.65 49.37 103.16 22.81 89.67 5.4 88.63 3.9 86.55.9 85.37 0c-1.48 1.05-5.79 6.75-7.12 8.55l-16.9 21.91c-.44 1.35 5.04 15.31 5.78 17.26 6.82 17.11 10.97 26.41 19.72 42.62 8.3 15.46 17.5 28.21 28.32 41.87.74.9.74 1.05 1.63 1.95 3.56 3.75 5.04 6 9.49 10.5l8 7.81h.01z"/><text x="207.63" y="236.07" fill="#4A4A4A" font-size="50.65" font-family="Arial">CONTENT MANAGEMENT SYSTEM</text><g fill-rule="nonzero"><path fill="#333" d="M245.38 66.05v85.49h-33.22V15.48h29.46l71.97 81.11V15.48h33.22v136.06h-26.3l-75.13-85.49zm186.52 73.94c-4.52 4.68-9.24 8.06-14.09 10.19-4.85 2.09-10.45 3.15-16.77 3.15-9.96 0-17.63-3.05-23-9.19-5.38-6.15-8.06-14.95-8.06-26.43v-58.4h28.7v54.41c0 6.58 1.05 11.36 3.11 14.38 2.06 3.02 5.31 4.51 9.73 4.51 3.93 0 7.67-1.22 11.14-3.65 3.47-2.42 6.55-6.04 9.24-10.85v-58.8h28.7v92.23h-28.7v-11.55zm113.75 11.55-35.52-47.88 34.93-44.35h34.46l-35.18 44.35 35.58 47.88h-34.27zm-64.41 0V15.48h28.5v136.06h-28.5zm195.16-10.09c-6.19 4.08-12.75 7.13-19.63 9.09-6.88 2-14.21 2.99-22.01 2.99-15.66 0-27.95-4.35-36.83-13.05-8.87-8.66-13.33-20.71-13.33-36.09 0-14.17 4.36-25.56 13.04-34.09 8.71-8.54 20.31-12.78 34.76-12.78 14.25 0 25.52 4.61 33.78 13.84 8.25 9.23 12.38 21.98 12.38 38.18v.96h-64.47v.4c0 7.31 2.45 13.08 7.4 17.33 4.91 4.25 11.66 6.38 20.25 6.38 5.76 0 11.53-1.03 17.29-3.12 5.74-2.06 11.54-5.15 17.37-9.23v19.19zm-62.12-45.09 35.38-.1c-.52-5.94-2.29-10.62-5.34-13.98-3.04-3.35-6.97-5.04-11.76-5.04-4.94 0-9.04 1.69-12.28 5.04-3.21 3.36-5.24 8.07-6 14.08z"/><path fill="#F60" d="M740.91 152.73 679.97 15.48h35.97l33.19 79.09 35.41-79.09h36.37l-65.46 137.25h-14.54zm86.52-1.19V59.31h28.7v92.23h-28.7zm-.98-122.08c0-4.35 1.47-8.03 4.45-11.06 2.98-3.02 6.59-4.51 10.88-4.51 4.36 0 7.99 1.49 10.91 4.48 2.95 2.99 4.42 6.67 4.42 11.09 0 4.38-1.47 8.03-4.42 11.02-2.92 2.99-6.55 4.48-10.91 4.48-4.29 0-7.9-1.49-10.88-4.51-2.98-3.02-4.45-6.67-4.45-10.99zm137.4 111.99c-6.19 4.08-12.74 7.13-19.62 9.09-6.88 2-14.22 2.99-22.02 2.99-15.66 0-27.95-4.35-36.82-13.05-8.88-8.66-13.34-20.71-13.34-36.09 0-14.17 4.36-25.56 13.04-34.09 8.71-8.54 20.31-12.78 34.76-12.78 14.25 0 25.52 4.61 33.78 13.84 8.25 9.23 12.38 21.98 12.38 38.18v.96h-64.47v.4c0 7.31 2.45 13.08 7.4 17.33 4.92 4.25 11.66 6.38 20.25 6.38 5.76 0 11.53-1.03 17.3-3.12 5.73-2.06 11.53-5.15 17.36-9.23v19.19zm-62.12-45.09 35.39-.1c-.53-5.94-2.3-10.62-5.34-13.98-3.05-3.35-6.98-5.04-11.77-5.04-4.94 0-9.04 1.69-12.28 5.04-3.21 3.36-5.24 8.07-6 14.08zm83.78-16.93h-12.98v-6.21l37.15-40.81h4.33v26.9h31.06v20.12h-31.06v34.06c0 7.07.98 11.82 2.98 14.18 1.97 2.35 5.57 3.55 10.81 3.55 2.56 0 5.28-.37 8.13-1.13 2.81-.73 5.89-1.89 9.14-3.45l.19 21.71a80.601 80.601 0 0 1-13.82 3.92c-4.62.83-9.21 1.26-13.76 1.26-11.57 0-19.86-3.02-24.77-9.06-4.95-6.04-7.4-16.44-7.4-31.18V79.43z"/></g></svg>