<?xml version="1.0" encoding="UTF-8"?>
<!DOCTYPE svg PUBLIC "-//W3C//DTD SVG 1.1//EN" "http://www.w3.org/Graphics/SVG/1.1/DTD/svg11.dtd">
<!-- Creator: CorelDRAW 2019 (64-Bit) -->
<svg xmlns="http://www.w3.org/2000/svg" xml:space="preserve" width="1425px" height="330px" version="1.1" shape-rendering="geometricPrecision" text-rendering="geometricPrecision" image-rendering="optimizeQuality" fill-rule="evenodd" clip-rule="evenodd"
viewBox="0 0 1027.99 238.06"
 xmlns:xlink="http://www.w3.org/1999/xlink"
 xmlns:xodm="http://www.corel.com/coreldraw/odm/2003">
 <g id="Layer_x0020_1">
  <metadata id="CorelCorpID_0Corel-Layer"/>
  <path fill="#0068CC" fill-rule="nonzero" d="M132.08 149.95c-8.17,-1.92 -35,-19.34 -42.87,-25.24 -7,-5.31 -18.37,-15.35 -23.91,-21.69l-5.11 -6.06c-8.89,-10.77 -13.7,-19.77 -19.54,-32.02 -0.58,-1.18 -0.87,-2.81 -2.04,-3.69l-8.16 13.72c-8.75,15.65 -15.46,28.34 -21.73,45.46 -9.33,24.94 -14.29,57.56 1.46,81.32 4.66,7.08 9.62,12.1 16.33,17.27 28.43,21.54 71.3,25.38 102.65,8.56 -1.6,-2.66 -20.27,-21.25 -22.31,-23.32 -4.81,-4.87 -10.79,-9.74 -14.73,-13.72l-9.33 -8.12c-6.41,-5.91 -18.52,-15.35 -25.08,-20.37l-26.39 -19.48c21.58,5.02 33.24,10.48 51.62,18.45 17.35,7.52 35.72,19.33 50.59,31.43 4.67,3.69 18.23,17.12 18.37,17.12 5.98,-9 8.9,-14.31 10.94,-26.42 4.67,-28.33 -8.31,-65.67 -20.71,-90.76l-12.83 -24.65c-10.64,-19.18 -27.85,-45.31 -41.12,-62.43 -1.02,-1.47 -3.06,-4.42 -4.22,-5.31 -1.46,1.03 -5.69,6.64 -7,8.41l-16.62 21.55c-0.44,1.33 4.95,15.05 5.68,16.97 6.71,16.83 10.79,25.98 19.4,41.92 8.16,15.2 17.2,27.74 27.84,41.17 0.73,0.89 0.73,1.04 1.61,1.92 3.5,3.69 4.96,5.9 9.33,10.33l7.87 7.68 0.01 0z"/>
  <g id="_2040683314640">
   <path fill="#333333" fill-rule="nonzero" d="M241.33 108.24l0 84.08 -32.67 0 0 -133.81 28.97 0 70.78 79.77 0 -79.77 32.67 0 0 133.81 -25.87 0 -73.88 -84.08zm183.43 72.72c-4.45,4.6 -9.08,7.93 -13.85,10.02 -4.77,2.06 -10.28,3.1 -16.5,3.1 -9.79,0 -17.33,-3 -22.62,-9.04 -5.28,-6.04 -7.92,-14.69 -7.92,-25.99l0 -57.44 28.22 0 0 53.52c0,6.47 1.03,11.17 3.06,14.14 2.03,2.97 5.22,4.44 9.57,4.44 3.87,0 7.54,-1.21 10.96,-3.59 3.41,-2.39 6.44,-5.95 9.08,-10.68l0 -57.83 28.23 0 0 90.71 -28.23 0 0 -11.36zm111.87 11.36l-34.93 -47.08 34.35 -43.63 33.9 0 -34.61 43.63 34.99 47.08 -33.7 0zm-63.35 0l0 -133.81 28.04 0 0 133.81 -28.04 0zm191.94 -9.93c-6.09,4.02 -12.53,7.02 -19.3,8.95 -6.76,1.96 -13.98,2.94 -21.65,2.94 -15.4,0 -27.48,-4.28 -36.22,-12.83 -8.73,-8.52 -13.11,-20.38 -13.11,-35.49 0,-13.95 4.29,-25.15 12.82,-33.54 8.58,-8.39 19.98,-12.57 34.19,-12.57 14.02,0 25.1,4.54 33.22,13.62 8.12,9.07 12.18,21.61 12.18,37.55l0 0.94 -63.41 0 0 0.4c0,7.18 2.42,12.86 7.28,17.04 4.83,4.18 11.47,6.27 19.91,6.27 5.67,0 11.34,-1.01 17.02,-3.07 5.63,-2.03 11.34,-5.06 17.07,-9.08l0 18.87zm-61.09 -44.34l34.8 -0.09c-0.51,-5.85 -2.26,-10.45 -5.25,-13.75 -3,-3.3 -6.86,-4.96 -11.57,-4.96 -4.86,0 -8.89,1.66 -12.08,4.96 -3.16,3.3 -5.16,7.93 -5.9,13.84z"/>
   <path fill="#FF6600" fill-rule="nonzero" d="M728.67 193.5l-59.94 -134.99 35.38 0 32.64 77.78 34.83 -77.78 35.77 0 -64.38 134.99 -14.3 0zm85.09 -1.18l0 -90.71 28.22 0 0 90.71 -28.22 0zm-0.97 -120.06c0,-4.28 1.45,-7.9 4.38,-10.87 2.94,-2.98 6.48,-4.45 10.7,-4.45 4.29,0 7.86,1.47 10.73,4.41 2.9,2.94 4.35,6.57 4.35,10.91 0,4.31 -1.45,7.9 -4.35,10.84 -2.87,2.94 -6.44,4.41 -10.73,4.41 -4.22,0 -7.76,-1.47 -10.7,-4.44 -2.93,-2.97 -4.38,-6.57 -4.38,-10.81zm135.14 110.13c-6.09,4.02 -12.54,7.02 -19.3,8.95 -6.77,1.96 -13.99,2.94 -21.66,2.94 -15.4,0 -27.48,-4.28 -36.21,-12.83 -8.73,-8.52 -13.12,-20.38 -13.12,-35.49 0,-13.95 4.29,-25.15 12.83,-33.54 8.57,-8.39 19.97,-12.57 34.18,-12.57 14.02,0 25.1,4.54 33.22,13.62 8.12,9.07 12.18,21.61 12.18,37.55l0 0.94 -63.41 0 0 0.4c0,7.18 2.42,12.86 7.28,17.04 4.84,4.18 11.47,6.27 19.92,6.27 5.67,0 11.34,-1.01 17.01,-3.07 5.64,-2.03 11.34,-5.06 17.08,-9.08l0 18.87zm-61.09 -44.34l34.79 -0.09c-0.51,-5.85 -2.25,-10.45 -5.25,-13.75 -3,-3.3 -6.86,-4.96 -11.57,-4.96 -4.86,0 -8.89,1.66 -12.08,4.96 -3.16,3.3 -5.15,7.93 -5.89,13.84zm82.38 -16.65l-12.76 0 0 -6.11 36.54 -40.13 4.25 0 0 26.45 30.55 0 0 19.79 -30.55 0 0 33.5c0,6.96 0.97,11.63 2.94,13.94 1.93,2.32 5.47,3.5 10.63,3.5 2.51,0 5.19,-0.36 7.99,-1.11 2.77,-0.72 5.8,-1.86 8.99,-3.4l0.19 21.36c-4.54,1.73 -9.08,3 -13.59,3.85 -4.55,0.82 -9.06,1.24 -13.54,1.24 -11.37,0 -19.52,-2.97 -24.36,-8.91 -4.86,-5.95 -7.28,-16.17 -7.28,-30.66l0 -33.31z"/>
  </g>
 </g>
</svg>
