<svg xmlns="http://www.w3.org/2000/svg" xml:space="preserve" width="1540" height="330" shape-rendering="geometricPrecision" text-rendering="geometricPrecision" image-rendering="optimizeQuality" fill-rule="evenodd" clip-rule="evenodd" viewBox="0 0 1200.83 257.27"><g fill-rule="nonzero"><path fill="#0068CC" d="M142.74 162.05c-8.83-2.07-37.82-20.89-46.33-27.28-7.57-5.74-19.86-16.58-25.84-23.44l-5.52-6.54c-9.61-11.64-14.81-21.37-21.12-34.61-.63-1.28-.94-3.03-2.2-3.99L32.9 81.02c-9.45 16.91-16.7 30.63-23.48 49.13C-.66 157.1-6.02 192.35 11 218.03c5.04 7.66 10.4 13.08 17.65 18.66 30.72 23.29 77.05 27.44 110.93 9.25-1.73-2.87-21.9-22.96-24.11-25.2-5.2-5.26-11.66-10.52-15.91-14.83l-10.09-8.77c-6.93-6.38-20.01-16.59-27.1-22.01l-28.52-21.06c23.32 5.43 35.93 11.33 55.78 19.94 18.75 8.13 38.61 20.89 54.68 33.97 5.04 3.99 19.7 18.5 19.85 18.5 6.47-9.72 9.61-15.47 11.82-28.55 5.04-30.62-8.98-70.97-22.37-98.09l-13.87-26.63c-11.51-20.74-30.1-48.97-44.44-67.47C94.2 4.15 91.99.96 90.73 0c-1.57 1.12-6.14 7.18-7.56 9.09L65.21 32.38c-.48 1.43 5.35 16.27 6.14 18.34 7.25 18.18 11.66 28.07 20.96 45.3 8.82 16.42 18.59 29.98 30.1 44.5.78.95.78 1.11 1.73 2.07 3.78 3.98 5.36 6.38 10.08 11.16l8.51 8.3h.01z"/><path fill="#333" d="M267.92 115.15v99.71h-38.74V56.18h34.35l83.95 94.59V56.18h38.74v158.68h-30.68l-87.62-99.71zm217.54 86.23c-5.28 5.46-10.78 9.41-16.43 11.89-5.66 2.44-12.19 3.68-19.57 3.68-11.61 0-20.55-3.56-26.82-10.73-6.27-7.16-9.4-17.42-9.4-30.82v-68.11h33.47v63.46c0 7.67 1.22 13.25 3.63 16.77 2.41 3.53 6.19 5.27 11.35 5.27 4.59 0 8.94-1.44 12.99-4.26 4.05-2.83 7.64-7.05 10.78-12.66v-68.58h33.47v107.57h-33.47v-13.48zm132.66 13.48-41.42-55.84 40.73-51.73h40.2l-41.04 51.73 41.5 55.84h-39.97zm-75.12 0V56.18h33.24v158.68H543zm227.62-11.77c-7.22 4.76-14.86 8.32-22.89 10.61-8.02 2.32-16.58 3.48-25.68 3.48-18.26 0-32.59-5.07-42.94-15.21-10.36-10.11-15.56-24.17-15.56-42.1 0-16.53 5.09-29.81 15.21-39.76 10.17-9.96 23.69-14.91 40.54-14.91 16.62 0 29.77 5.38 39.4 16.14 9.63 10.77 14.44 25.64 14.44 44.54V167h-75.2v.46c0 8.52 2.87 15.26 8.64 20.22 5.73 4.95 13.6 7.43 23.61 7.43 6.73 0 13.45-1.2 20.18-3.64 6.68-2.4 13.45-6 20.25-10.76v22.38zm-72.45-52.59 41.27-.11c-.61-6.93-2.68-12.4-6.23-16.3-3.55-3.92-8.14-5.89-13.72-5.89-5.77 0-10.54 1.97-14.32 5.89-3.75 3.9-6.12 9.4-7 16.41z"/><path fill="#F60" d="M845.86 216.25 774.78 56.18h41.96l38.71 92.23 41.3-92.23h42.42l-76.35 160.07h-16.96zm100.91-1.39V107.29h33.47v107.57h-33.47zm-1.15-142.38c0-5.08 1.72-9.37 5.2-12.9 3.48-3.52 7.68-5.26 12.69-5.26 5.08 0 9.32 1.74 12.72 5.22 3.44 3.49 5.16 7.79 5.16 12.94 0 5.11-1.72 9.37-5.16 12.85-3.4 3.49-7.64 5.23-12.72 5.23-5.01 0-9.21-1.74-12.69-5.27-3.48-3.52-5.2-7.78-5.2-12.81zm160.26 130.61c-7.22 4.76-14.87 8.32-22.89 10.61-8.03 2.32-16.58 3.48-25.68 3.48-18.26 0-32.59-5.07-42.95-15.21-10.35-10.11-15.55-24.17-15.55-42.1 0-16.53 5.08-29.81 15.21-39.76 10.16-9.96 23.69-14.91 40.54-14.91 16.62 0 29.77 5.38 39.39 16.14 9.63 10.77 14.45 25.64 14.45 44.54V167h-75.2v.46c0 8.52 2.87 15.26 8.64 20.22 5.73 4.95 13.6 7.43 23.61 7.43 6.73 0 13.45-1.2 20.18-3.64 6.68-2.4 13.44-6 20.25-10.76v22.38zm-72.45-52.59 41.27-.11c-.61-6.93-2.68-12.4-6.23-16.3-3.56-3.92-8.14-5.89-13.72-5.89-5.77 0-10.54 1.97-14.33 5.89-3.74 3.9-6.11 9.4-6.99 16.41zm97.7-19.75H1116v-7.24l43.33-47.59h5.05v31.37h36.22v23.46h-36.22v39.73c0 8.25 1.14 13.79 3.47 16.54 2.3 2.75 6.5 4.14 12.61 4.14 2.98 0 6.16-.42 9.48-1.32 3.29-.85 6.88-2.2 10.66-4.02l.23 25.32a94.983 94.983 0 0 1-16.12 4.57c-5.39.97-10.74 1.47-16.05 1.47-13.49 0-23.16-3.52-28.89-10.57-5.77-7.05-8.64-19.17-8.64-36.36v-39.5z"/></g></svg>