<svg xmlns="http://www.w3.org/2000/svg" xml:space="preserve" shape-rendering="geometricPrecision" text-rendering="geometricPrecision" image-rendering="optimizeQuality" fill-rule="evenodd" clip-rule="evenodd" viewBox="0 0 21158.05 21181.8"><g fill="#DEDEDE" fill-rule="nonzero"><path d="M9461.01 34.96C5336.89 497.63 1841.68 3305.41 538.94 7205 336.86 7798.08 188.53 8422.46 80.8 9105.35c-107.73 709.88-107.73 2241.69 0 2964.95 350.41 2259.62 1311.59 4245.25 2825.7 5817.65 907.43 947.8 1783.55 1585.79 2964.95 2174.33 3122.13 1558.8 6779.04 1486.9 9829.5-197.76 925.35-512.11 1599.17-1028.76 2403.4-1837.52 1617.31-1625.96 2619.08-3629.72 2969.49-5934.24 112.27-741.18 112.27-2304.73 0-3032.32-292.11-1895.82-1060.28-3661.23-2228.3-5121.36-408.7-512.11-1316.34-1392.56-1841.84-1783.55-1433.14-1073.67-2942.5-1720.51-4739.44-2039.61-620.07-107.95-2165.48-152.85-2803.25-80.96zm2556.04 1410.69c3351.42 570.62 6069.16 2803.25 7246.25 5952.36 395.31 1060.28 543.64 1927.34 543.64 3189.71 0 1028.76-49.44 1455.6-265.13 2291.13-125.87 476.28-516.65 1572.4-566.09 1572.4-26.99 0-16073.97-8881.48-16118.88-8921.85-62.83-58.29 925.35-1262.37 1383.7-1689.2 1455.6-1343.33 3203.09-2169.8 5193.26-2439.45 579.7-80.97 1994.71-58.51 2583.25 44.9zm-1747.49 9735.15c5597.63 3104.21 8032.34 4478.84 8014.42 4519.22-58.29 161.71-768.17 1019.7-1168.02 1424.08-3257.07 3279.52-8387.28 3621.07-12129.48 813.29-471.74-354.94-1257.83-1123.11-1639.76-1599.17-799.69-1006.31-1379.17-2156.41-1707.12-3387.26-238.14-894.25-287.58-1307.49-287.58-2363.24 0-1028.76 49.44-1455.6 265.13-2291.13 130.4-507.58 521.18-1572.4 570.62-1572.4 22.24 0 3656.7 2008.09 8081.79 4456.61z"/><path d="M8813.96 5034.99c-422.3 152.64-741.18 480.59-862.52 894.04-44.91 143.79-67.36 417.77-67.36 754.79 0 310.03-17.92 534.57-44.91 543.64-22.45 4.53 489.66 310.03 1145.57 673.82l1195.01 664.97h372.85c754.79 0 1468.98 283.04 2017.15 804.23 179.63 170.78 399.85 435.69 489.66 593.08l170.78 287.58 2030.54 1127.65 2034.86 1131.74 13.6-2079.98c9.07-1994.7 4.53-2093.58-80.96-2326.97-116.8-314.57-337.02-561.56-633.45-727.8l-242.67-134.72-1536.34-13.39-1540.88-13.39v-557.02c0-449.29-17.92-606.46-89.81-799.69-116.8-314.57-337.02-561.56-633.45-727.8l-242.67-134.72-1662.21-9.07c-1320.68-9.28-1698.07-.22-1832.79 49.01zM3849.77 11921.98c13.39 3216.48 13.39 3274.99 107.73 3477.07 139.26 296.43 350.41 512.11 637.98 655.9l256.06 125.87 5727.83.01h5727.83l260.59-125.87c143.79-71.89 251.52-152.86 242.67-179.63-9.07-35.84-3710.67-2124.89-4061.29-2286.6-85.28-40.37-125.87-22.45-300.96 130.4-835.53 736.65-2120.35 884.97-3171.79 368.33-768.17-377.39-1374.64-1168.02-1554.26-2017.15-62.83-300.96-67.36-979.32-9.07-1203.86 13.39-49.44-1518.42-929.88-3504.06-2017.15l-372.86-202.08 13.6 3274.76z"/><path d="M9025.11 11719.9c44.91 287.58 273.98 723.27 480.59 911.96 310.03 278.51 628.92 399.85 1051.22 404.38 341.55 0 786.09-112.27 786.09-197.76 0-31.52-2264.14-1307.27-2322.65-1307.27-13.17-.01-13.17 85.28 4.75 188.69z"/></g></svg>