<svg xmlns="http://www.w3.org/2000/svg" xml:space="preserve" shape-rendering="geometricPrecision" text-rendering="geometricPrecision" image-rendering="optimizeQuality" fill-rule="evenodd" clip-rule="evenodd" viewBox="0 0 3598.33 3598.33"><path fill="none" d="M0 0h3598.33v3598.33H0z"/><path fill="#428BCA" d="M1809.37 2337.91c-146.99 0-250.96-34.56-336.25-98.47-44.56-33.39-75.89-60.04-114.14-99.77-13.48-14-13.91-16.98-24.76-30.43l-76.88-88.75c-20.1 5.37-45.99 29.82-76.21 48C910.9 2231 491.5 2313.21 384.83 2452.14c-20.29 26.43-38.83 45.85-56.28 74.84-91.31 151.78-209.26 678.37-209.26 873.05.11 253.5 3377.46 225.8 3377.35-27.95 0-141.95-115.9-629.86-160.27-732.58-67.17-155.49-118.9-218.48-252.73-285.48-328.42-164.46-406.44-119.71-736.05-340.42-35.31 66.75-145.94 174.68-206.97 220.84-84.85 64.17-182.65 103.47-331.25 103.47z"/><path fill="#428BCA" d="M1505.76 191.9c7.33-7.33 26.17 10.96 7.68 3.59-.15-.06-19.24 7.97-7.68-3.59zm263.06-179.4h143.03c188.28 17.28 378.23 99.57 492.83 218.94 47.41 49.39 116.35 178.52 122.33 250.28-14.88-10.9-27.79-33.34-40.46-49.25-38.4-48.26-82.07-94.5-131.97-130.24C2136 145.75 1869.16 84.98 1601.5 163.44l-47.88 14.23c-9.93 4.1-7.96 3.58-13.36 7.34 98.41-2.19 142.69-53.04 375.56-9.86 161.46 29.96 302.36 104.62 409.35 211.69 36.11 36.14 68.16 67.17 97.09 109.93 14.75 21.82 27.21 39.15 40.33 63.17 35.25 64.55 78.22 159.03 78.22 232.29-49.85 0-53.14-5.61-86.02 17.49-86.35 60.69-61.69 123.25-134.79 161.93-44.49-84.08 28.82-200.85-66.79-185.31-23.11 3.76-39.47 12.29-70.95 13.06-155.06 3.84-432.64-46.58-581.34-81.63-77.72-18.31-224.59-70.45-260.77-70.45-34.9 52.12-38.76 62.54-47.34 145.89-3.29 32.09-2.68 65.35-5.88 90.72-6.27 49.66 4.67 42.15-15.79 80.81-67.1-15.63-39.74-92.33-117.3-110.4-106.43 92.51-44.7 506.65 53.37 553.85 58.95 28.37 24.61 13.29 61.19 118.23 16.61 47.65 34.03 81.26 55.54 123.87 43.14 85.47 74.64 105.78 113.8 155.3l93.58 85.84c182.02 135.6 276.97 135.68 457.51 46.32 73.69-36.48 144.96-100.44 195.32-163.5 48.71-60.96 37.35-39.03 106.03-73.38l119.52-59.89c-6.07 12.64-7.48 21.3-14.18 34.12l-54.8 90.11c-12.65 19.04-25.47 37.95-40.4 56.2l-40.75 48.95c-210.44 238.79-491.11 345.63-765.74 141.36-67.53-50.24-143.96-118.23-195.15-184.37-29.12-37.64-53.65-68.94-79.86-113.35-22.73-38.52-44.51-83.09-59.01-127.29-30.5-92.95-9.73-50.84-52.64-92.28-9.63-9.31-13.91-16.52-21.5-26.79-104.91-141.89-136.73-460.85-75.88-619.34 42.85-111.62 22.42-21.02 26.52-159.79 3.97-134.48 56.25-339.93 143.25-429.48 180.76-186.05 253.56-94.84 321.6-147.62 74.37-57.71 167.82-89.12 267.66-98.91zm-228.56 172.51-13.46 7.93 13.46-7.93z"/><path fill="#FD7E14" d="M2458 1489.17c154.38 0 154.35-183.44 165.8-317.23 5.42-63.32 13.62-82.65 13.62-158.89 0-166.47-209.56-349.96-267.89 132.34-6.48 53.67-29.23 268.74 4.26 310.68 8.79 11.01 65.8 33.1 84.21 33.1zm-476.12 158.71c-7.34-27.49-34.38-55.2-69.01-55.2-193.1 0-317.41-34.35-317.41 117.3 0 50.18 33.15 103.5 82.81 103.5h234.6c61.66 0 56.96-51.87 92.6-66.11 28.78-11.51 148.14-23.21 280.14-92.48 23.43-12.29 47.29-27.88 69.36-41.05 35.74-21.32 94.97-64.42 116.83-97.07-55.55 0-112.43 2.7-124.21-41.4-25.2 18.47 5.65 64.69-254.39 145.82-26.73 8.34-90.48 16.69-111.32 26.69z"/></svg>