<?xml version="1.0" encoding="UTF-8"?>
<!DOCTYPE svg PUBLIC "-//W3C//DTD SVG 1.1//EN" "http://www.w3.org/Graphics/SVG/1.1/DTD/svg11.dtd">
<!-- Creator: CorelDRAW X6 -->
<svg xmlns="http://www.w3.org/2000/svg" xml:space="preserve" width="100%" height="100%" version="1.1" style="shape-rendering:geometricPrecision; text-rendering:geometricPrecision; image-rendering:optimizeQuality; fill-rule:evenodd; clip-rule:evenodd"
viewBox="0 0 6668 1730"
 xmlns:xlink="http://www.w3.org/1999/xlink">
 <defs>
  <style type="text/css">
   <![CDATA[
    .fil0 {fill:none}
    .fil3 {fill:#205FA0;fill-rule:nonzero}
    .fil2 {fill:#FF6600;fill-rule:nonzero}
    .fil1 {fill:url(#id0)}
   ]]>
  </style>
  <linearGradient id="id0" gradientUnits="userSpaceOnUse" x1="624.54" y1="55.03" x2="624.54" y2="1710.66">
   <stop offset="0" style="stop-color:#3C82D2"/>
   <stop offset="1" style="stop-color:#205FA0"/>
  </linearGradient>
 </defs>
 <g id="Layer_x0020_1">
  <metadata id="CorelCorpID_0Corel-Layer"/>
  <g id="_231097608">
   <polygon class="fil0" points="0,0 6668,0 6668,1730 0,1730 "/>
   <path class="fil1" d="M975 1071c-56,-13 -240,-131 -294,-171 -48,-36 -126,-104 -164,-147l-35 -41c-61,-73 -94,-134 -134,-217 -4,-8 -6,-19 -14,-25l-56 93c-60,106 -106,192 -149,308 -64,169 -98,390 10,551 32,48 66,82 112,117 195,146 489,172 704,58 -11,-18 -139,-144 -153,-158 -33,-33 -74,-66 -101,-93l-64 -55c-44,-40 -127,-104 -172,-138l-181 -132c148,34 228,71 354,125 119,51 245,131 347,213 32,25 125,116 126,116 41,-61 61,-97 75,-179 32,-192 -57,-445 -142,-615l-88 -167c-73,-130 -191,-307 -282,-423 -7,-10 -21,-30 -29,-36 -10,7 -39,45 -48,57l-114 146c-3,9 34,102 39,115 46,114 74,176 133,284 56,103 118,188 191,279 5,6 5,7 11,13 24,25 34,40 64,70l54 52z"/>
   <polygon class="fil2" points="4973,689 4828,689 4828,1458 4693,1458 4693,689 4548,689 4548,618 4973,618 "/>
   <polygon class="fil2" points="4486,1458 4116,1458 4116,618 4485,618 4485,689 4253,689 4253,1004 4446,1004 4446,1075 4253,1075 4253,1388 4486,1388 "/>
   <polygon class="fil2" points="4052,1458 3915,1458 3915,618 4052,618 "/>
   <polygon class="fil2" points="3849,618 3651,1458 3516,1458 3324,618 3462,618 3584,1170 3710,618 "/>
   <polygon class="fil2" points="3259,1458 2890,1458 2890,618 3259,618 3259,689 3027,689 3027,1004 3220,1004 3220,1075 3027,1075 3027,1388 3259,1388 "/>
   <polygon class="fil2" points="2825,1458 2683,1458 2529,1150 2529,1458 2391,1458 2391,618 2529,618 2529,925 2683,618 2825,618 2611,1038 "/>
   <path class="fil2" d="M2331 1336c0,35 -19,66 -56,92 -42,27 -94,40 -157,40 -63,0 -114,-13 -154,-40 -39,-27 -59,-58 -59,-92l0 -714 135 0 0 714c0,15 6,28 17,39 15,15 35,22 61,22 52,0 78,-21 78,-61l0 -714 135 0 0 714z"/>
   <polygon class="fil2" points="1843,1458 1711,1458 1552,1011 1552,1458 1415,1458 1415,618 1547,618 1705,1066 1705,618 1843,618 "/>
   <path class="fil3" d="M6563 1326c0,34 -19,64 -57,90 -41,28 -94,42 -157,42 -64,0 -116,-13 -155,-40 -39,-27 -59,-58 -59,-92l0 -97 137 0 0 97c0,41 26,61 77,61 25,0 45,-7 60,-21 11,-12 17,-25 17,-40l0 -93c0,-44 -25,-88 -75,-132 -47,-39 -94,-77 -140,-114 -51,-48 -76,-100 -76,-154l0 -93c0,-34 19,-64 57,-90 41,-29 93,-43 157,-43 63,0 116,14 157,42 38,27 57,58 57,91l0 98 -137 0 0 -98c0,-41 -26,-61 -77,-61 -26,0 -45,7 -57,20 -13,14 -20,27 -20,41l0 93c0,45 25,89 75,132 24,20 47,39 70,58 23,19 46,38 70,57 51,48 76,99 76,153l0 93z"/>
   <polygon class="fil3" points="6070,1458 5935,1458 5935,1013 5828,1322 5721,1013 5721,1458 5584,1458 5584,618 5716,618 5827,944 5937,618 6070,618 "/>
   <path class="fil3" d="M5519 1326c0,35 -19,66 -55,92 -43,27 -95,40 -158,40 -63,0 -114,-13 -154,-40 -39,-27 -59,-58 -59,-92l0 -586c0,-34 20,-65 59,-92 40,-27 91,-41 154,-41 63,0 116,14 158,42 36,26 55,56 55,91l0 98 -135 0 0 -98c0,-41 -26,-61 -78,-61 -25,0 -46,7 -61,21 -11,12 -17,25 -17,40l0 586c0,15 6,28 17,40 15,14 35,21 61,21 52,0 78,-20 78,-61l0 -97 135 0 0 97z"/>
  </g>
 </g>
</svg>
