<svg xmlns="http://www.w3.org/2000/svg" xml:space="preserve" width="464.842" height="95.04" viewBox="0 0 3685.12 753.45" shape-rendering="geometricPrecision" text-rendering="geometricPrecision" image-rendering="optimizeQuality" fill-rule="evenodd" clip-rule="evenodd"><path d="M194.53 95.67c0 1.91.3 2.06.73 3.67 40.87 112.38 76.88 184.74 145.35 281.85 25.22 31.07 45.71 56.72 75.11 84.88 1.89 1.58 5.22 4.26 4.79 5.11-.41.73-1.78.19-3.64-.76-68.43-37.3-116.31-65.84-175.8-116.7-36.09-38.15-59.67-61.68-86.57-107.51l-23.83-47.64c-3.05-5.13-4.45-7.62-7.93-1.51-10.64 15.9-20.68 35.11-29.84 50.43-34.18 61.57-52.59 103.44-76.57 171.4-30.47 88.39-20.38 188.47 48.02 256.15 43.47 43 131.83 78.2 193.41 78.2 56.14 1.84 106.31-9.17 156.88-31.15 5.94-3.06-10.78-17.71-14.65-22.01-33.25-39.87-112.08-109.69-153.55-142.25-45.2-35.35-89.25-68.64-135.98-102.09-1.32-.96-2.74-1.98-2.26-2.69 10.95 2.55 26.39 6.06 35.9 9.73 44.86 14.23 86.22 31.22 129.63 50.16 44.58 22.47 84.2 44.95 125.63 73.4 19.14 13.76 36.66 28.02 53.89 43.97 10.09 9.33 25.42 26.63 35.41 33.32.89.56 2.31-1.51 4.32-4.47 18.57-27.26 24.91-44.6 32.01-77.4 28.93-141.57-94.82-372.83-195.07-505.49C324.58 68.86 275.91.01 272.03.01c-1.66-.07-3.19.41-4.5 2.1l-7.68 8.81-56.42 72.23c-1.86 2.27-8.64 10.48-8.93 12.52z" fill="#0d6efd"/><path d="M2325.07 608.74h-253.23V169h253.23v76.37h-160.03v96.69h148.84v76.37h-148.84v113.32h160.03v76.99zm-316.17 0h-105.83L1787.9 423.46l-39.42 28.23v157.05h-93.21V169h93.21v201.19l36.75-51.73 118.97-149.45h103.47l-153.25 194.62 154.49 245.12zM1547.7 169v284.64c0 32.44-7.29 60.97-21.76 85.4-14.58 24.53-35.52 43.22-63.03 56.25-27.51 13.04-59.95 19.61-97.51 19.61-56.46 0-100.39-14.48-131.7-43.52-31.31-28.95-46.91-68.57-46.91-118.97V169h92.9v269.25c0 33.97 6.88 58.82 20.43 74.63 13.65 15.91 36.23 23.81 67.75 23.81 30.49 0 52.55-8.01 66.31-23.92 13.75-15.91 20.63-40.96 20.63-75.04V169h92.9zm-468.59 439.74H960.65L769.31 276.06h-2.67c3.8 58.82 5.75 100.7 5.75 125.75v206.94h-83.35V169.01h117.64l190.92 329.4h2.16c-3.08-57.18-4.52-97.62-4.52-121.23V169.01h83.87v439.74z" fill="#212529" fill-rule="nonzero"/><path d="M3565.73 608.74h-93.2V246.6h-119.38V169h331.96v77.6h-119.38v362.14zm-284.07 0h-253.23V169h253.23v76.37h-160.03v96.69h148.84v76.37h-148.84v113.32h160.03v76.99zm-434.26 0V169h93.21v439.74h-93.21zM2698.05 169h94.13l-149.45 439.74h-101.72L2391.86 169h94.13l82.73 261.65c4.62 15.5 9.34 33.46 14.27 53.99 4.93 20.63 8.01 34.9 9.24 42.91 2.15-18.48 9.65-50.71 22.48-96.9L2698.06 169z" fill="#fd7e14" fill-rule="nonzero"/></svg>